<svg width="150" height="151" viewBox="0 0 150 151" fill="none" xmlns="http://www.w3.org/2000/svg">
    <circle cx="75" cy="75.088" r="68.182" fill="#B8DCFA" fill-opacity=".2"/>
    <path d="m113.492 128.764-25.25-6.199a6.73 6.73 0 0 1-5.104-6.066c-1.164-15.69.826-35.543 6.448-64.364a3.42 3.42 0 0 1 1.492-2.214 3.348 3.348 0 0 1 2.622-.435l48.789 11.979c.895.22 1.663.805 2.121 1.6.455.806.566 1.763.31 2.656-8.366 28.147-15.796 46.664-24.095 60.032a6.73 6.73 0 0 1-7.333 3.011z" fill="#B8DCFA"/>
    <path d="M125.993 85.074c-3.917-.962-8.709-3.18-14.362-7.62-12.081-9.477-18.834-7.427-20.864-6.387-3.043 18.974-4.02 33.295-3.155 45.08.07.972.757 1.786 1.71 2.02l25.249 6.199a2.245 2.245 0 0 0 2.452-.998c5.832-9.396 11.247-21.512 16.914-37.968-2.02.396-4.665.479-7.944-.326z" fill="#56B4E6"/>
    <path d="m113.237 118.705-20.378-5.003a2.255 2.255 0 0 1-1.645-2.736 2.255 2.255 0 0 1 2.725-1.663l20.378 5.004a2.255 2.255 0 0 1 1.646 2.735 2.255 2.255 0 0 1-2.726 1.663z" fill="#B8DCFA"/>
    <path d="M91.532 86.832V22.3c0-2.205-1.303-2.713-1.99-1.92C82.07 28.9 75.693 46.056 77.634 62.877c.05.421.332.793.725.954l4.448 2.167c.442.174.725.595.725 1.078v18.617c0 2.23 1.794 4.038 4.005 4.038 2.212 0 4.006-1.808 4.006-2.886l-.012-.013zM65.226 40.606v4.88c0 2.54-2.04 4.596-4.558 4.596H52.25c-2.518 0-4.558-2.057-4.558-4.596v-4.88M57.08 89.756h-1.24c-2.569 0-4.62-2.13-4.56-4.72l3.245-34.942h3.858l3.243 34.942c.074 2.59-1.99 4.72-4.558 4.72h.012z" fill="#CCC"/>
    <path d="M87.538 92.01c-3.464 0-6.278-2.837-6.278-6.33V67.782l-3.821-1.87a3.45 3.45 0 0 1-2.064-2.787c-2.101-18.258 4.988-35.76 12.47-44.282.91-1.028 2.298-1.4 3.54-.917 1.523.582 2.444 2.217 2.444 4.36v64.547c0 2.613-3.108 5.177-6.278 5.177h-.013zm-3.796-28.117a3.474 3.474 0 0 1 2.076 3.17V85.68c0 .954.775 1.735 1.72 1.735.824 0 1.5-.545 1.72-.855V24.429c-6.069 8.547-10.897 23.188-9.423 37.556l3.907 1.908zM65.226 18.533a2.285 2.285 0 0 0-2.273 2.291v17.094c-1.388.508-2.764.508-4.214-.012V21.704a2.285 2.285 0 0 0-2.273-2.291 2.285 2.285 0 0 0-2.273 2.291v16.214c-1.389.508-2.765.508-4.202-.012V20.825a2.285 2.285 0 0 0-2.273-2.292 2.306 2.306 0 0 0-2.298 2.291v24.674c0 3.729 2.949 6.764 6.61 6.875l-3.01 32.44v.15a6.795 6.795 0 0 0 1.93 4.99 6.734 6.734 0 0 0 4.901 2.082h1.241c1.856 0 3.6-.743 4.903-2.081a6.814 6.814 0 0 0 1.929-4.992L60.9 52.373c3.662-.124 6.61-3.158 6.61-6.874V20.823a2.285 2.285 0 0 0-2.273-2.291h-.012zM58.714 86.77a2.247 2.247 0 0 1-1.634.694h-1.24a2.247 2.247 0 0 1-1.635-.694 2.3 2.3 0 0 1-.651-1.597l2.9-31.202 2.9 31.202c0 .607-.234 1.164-.652 1.597h.012zm1.954-38.968h-8.416a2.285 2.285 0 0 1-2.274-2.291v-2.849c.713.149 1.438.248 2.15.248 1.475 0 2.925-.335 4.35-.966 1.462.631 2.937.966 4.411.966.688 0 1.376-.1 2.064-.236v2.837a2.285 2.285 0 0 1-2.273 2.291h-.012z" fill="#CCC"/>
    <path d="M44.105 121.817c-9.007 1.513-18.301-.864-25.465-6.534-9.338-7.384-12.697-26.656-6.195-35.574l1.702-2.34c.676-.934 2.15-.472 2.184.672l.094 2.895c.209 6.715 3.206 10.48 5.697 11.676.72.344 2.069.79 3.146-.015 1.447-1.087 1.933-3.956 1.306-7.691-.18-1.07-.469-2.282-.784-3.574-1.747-7.264-4.373-18.233 7.557-29.703l1.35-1.302c.696-.668 1.862-.289 2.034.66l.311 1.856c1.678 9.77 6.604 13.786 11.374 17.681 5.083 4.149 10.335 8.428 9.395 18.956-.092.981.961 1.636 1.825 1.161 1.602-.893 2.504-2.304 3.026-4.96.197-1.011.732-3.302 1.826-3.425.95-.11 2.127 1.942 2.642 2.748l.006.036c3.486 6.752 3.392 14.582-.258 20.931a32.31 32.31 0 0 1-22.76 15.844l-.013.002z" fill="#FCDA55"/>
    <path d="M43.449 118.418c-.215.036-.417.07-.622.092-7.874.894-13.745-7.145-10.789-14.49.583-1.492.546-2.953.15-4.367-.026-1.096 2.676 2.156 3.76 3.502.23.28.666.243.846-.068 2.273-3.978 2.036-8.964 1.326-13.7a.512.512 0 0 1 .882-.221l10.46 11.879c5.252 5.954 2.343 15.553-5.42 17.261-.19.032-.39.078-.581.11l-.012.002z" fill="#F39A18"/>
</svg>
